<svg width="25" height="25" viewBox="0 0 25 25" fill="none" xmlns="http://www.w3.org/2000/svg">
<path d="M12.5002 25C5.60761 25 0 19.3923 0 12.5C0 5.60725 5.60761 0 12.5002 0C19.3929 0 25 5.6077 25 12.5C25 19.3928 19.3929 25 12.5002 25ZM12.5002 1.34515C6.34945 1.34515 1.34513 6.3491 1.34513 12.5C1.34513 18.6509 6.34945 23.6548 12.5002 23.6548C18.651 23.6548 23.6549 18.6509 23.6549 12.5C23.6549 6.3491 18.651 1.34515 12.5002 1.34515Z" fill="#9F6DEB"/>
<rect x="3.97192" y="13.7598" width="6.08322" height="1.22893" fill="#9F6DEB"/>
<rect x="14.9709" y="13.7598" width="6.08322" height="1.22893" fill="#9F6DEB"/>
<rect x="5.46509" y="9.45898" width="6.08322" height="1.22893" transform="rotate(31 5.46509 9.45898)" fill="#9F6DEB"/>
<rect x="5.4021" y="9.4209" width="6.15693" height="1.22893" transform="rotate(31 5.4021 9.4209)" fill="#9F6DEB"/>
<rect width="6.15693" height="1.22893" transform="matrix(-0.857167 0.515038 0.515038 0.857167 19.5725 9.39746)" fill="#9F6DEB"/>
<rect x="8.79004" y="6.45117" width="6.22048" height="1.22893" transform="rotate(61 8.79004 6.45117)" fill="#9F6DEB"/>
<rect width="6.22048" height="1.22893" transform="matrix(-0.48481 0.87462 0.87462 0.48481 16.2046 6.44824)" fill="#9F6DEB"/>
<rect x="13.1274" y="5.6123" width="6.26756" height="1.22893" transform="rotate(90 13.1274 5.6123)" fill="#9F6DEB"/>
</svg>
