<svg width="41" height="41" viewBox="0 0 41 41" fill="none" xmlns="http://www.w3.org/2000/svg">
<path d="M20.1287 40.256C9.02975 40.256 0 31.2262 0 20.128C0 9.029 9.02975 0 20.1287 0C31.2277 0 40.2567 9.02974 40.2567 20.128C40.2567 31.227 31.2277 40.256 20.1287 40.256ZM20.1287 2.16602C10.2243 2.16602 2.16602 10.2236 2.16602 20.128C2.16602 30.0324 10.2243 38.09 20.1287 38.09C30.0332 38.09 38.0907 30.0324 38.0907 20.128C38.0907 10.2236 30.0332 2.16602 20.1287 2.16602Z" fill="#A370F0"/>
<path d="M23.6453 29.3511C23.6484 29.3502 23.6426 29.352 23.6453 29.3511C23.6453 27.9544 23.6453 26.5817 23.6453 25.2085C23.6453 24.6611 23.5733 24.1263 23.3849 23.611C23.2445 23.2272 23.0433 22.8836 22.7211 22.5755C23.1845 22.4912 23.6192 22.4227 24.0491 22.3321C24.7006 22.1948 25.3291 21.9841 25.9253 21.6763C27.0684 21.0868 27.9229 20.2062 28.3912 18.9812C29.044 17.2736 29.2068 15.5193 28.7081 13.7347C28.5205 13.0635 28.1886 12.4635 27.7473 11.9319C27.6475 11.8122 27.6312 11.7202 27.6802 11.5666C28.0505 10.4082 27.8872 9.2789 27.4829 8.16451C27.433 8.02719 27.3403 8.01813 27.2295 8.01586C26.7277 8.00589 26.2541 8.14276 25.7898 8.31769C25.1057 8.57556 24.4671 8.92768 23.854 9.32875C23.7186 9.41758 23.6007 9.44659 23.4339 9.40172C21.5427 8.89415 19.6303 8.88643 17.7267 9.27119C17.0563 9.4067 16.5134 9.37588 15.9282 8.97435C15.2211 8.48899 14.4205 8.1695 13.5638 8.03853C13.4239 8.01723 13.3162 8.00227 13.231 8L12.9684 8.09608C12.9031 8.17629 12.8568 8.31361 12.7892 8.53567C12.4768 9.56441 12.4569 10.6009 12.7332 11.6391C12.7738 11.7918 12.7535 11.892 12.6555 12.0107C11.8205 13.0204 11.4329 14.1992 11.414 15.5162C11.399 16.5635 11.4969 17.5954 11.8196 18.5938C12.4635 20.5878 13.8617 21.7316 15.7834 22.2791C16.3872 22.4513 17.002 22.5641 17.6751 22.6394C17.4879 22.8497 17.3259 23.0282 17.2085 23.2408C17.0249 23.5734 16.9071 23.9301 16.8656 24.3076C16.8488 24.4607 16.787 24.5296 16.6568 24.584C15.0772 25.2438 13.6799 24.7893 12.7658 23.316C12.3324 22.6176 11.7432 22.14 10.9382 21.9759C10.6884 21.9252 10.4377 21.9179 10.1945 22.009C9.98177 22.0888 9.94381 22.227 10.0793 22.4146C10.1764 22.5492 10.3017 22.6571 10.4395 22.7436C11.2321 23.2408 11.7317 23.9863 12.0817 24.8396C12.618 26.1489 13.6093 26.7589 14.9391 26.8713C15.5415 26.922 16.1387 26.8572 16.7407 26.7167C16.7407 27.5683 16.7257 28.5136 16.7257 29.3516C16.7257 29.3516 16.7663 32 20.159 32C23.5517 32 23.6453 29.3511 23.6453 29.3511Z" fill="#A370F0"/>
</svg>
