<svg width="41" height="41" viewBox="0 0 41 41" fill="none" xmlns="http://www.w3.org/2000/svg">
<path d="M20.0305 40.0617C8.98543 40.0617 0 31.0755 0 20.0312C0 8.98616 8.98617 0 20.0305 0C31.0755 0 40.0609 8.98616 40.0609 20.0312C40.0609 31.0755 31.0748 40.0617 20.0305 40.0617ZM20.0305 1.90302C10.0345 1.90302 1.90229 10.0352 1.90229 20.0312C1.90229 30.0272 10.0345 38.1594 20.0305 38.1594C30.0265 38.1594 38.1587 30.0272 38.1587 20.0312C38.1579 10.0352 30.0258 1.90302 20.0305 1.90302ZM26.7841 11.9035C25.9656 11.9035 25.3022 12.5669 25.3022 13.3854C25.3022 14.2039 25.9656 14.8673 26.7841 14.8673C27.6027 14.8673 28.266 14.2039 28.266 13.3854C28.2668 12.5676 27.6027 11.9035 26.7841 11.9035ZM20.1945 13.8043C16.7615 13.8043 13.9683 16.5975 13.9683 20.0305C13.9683 23.4634 16.7615 26.2567 20.1945 26.2567C23.6274 26.2567 26.4207 23.4634 26.4207 20.0305C26.4207 16.5975 23.6282 13.8043 20.1945 13.8043ZM20.1945 24.0197C17.9952 24.0197 16.206 22.2305 16.206 20.0312C16.206 17.832 17.9952 16.0427 20.1945 16.0427C22.3937 16.0427 24.183 17.832 24.183 20.0312C24.183 22.2305 22.3937 24.0197 20.1945 24.0197ZM32.7584 14.8563C32.7584 10.6624 29.3579 7.26191 25.164 7.26191H15.1407C10.9461 7.26191 7.54633 10.6616 7.54633 14.8563V24.8804C7.54633 29.0742 10.9468 32.4747 15.1407 32.4747H25.164C29.3587 32.4747 32.7584 29.075 32.7584 24.8804V14.8563ZM30.3796 24.8804C30.3796 27.7607 28.0444 30.0959 25.1633 30.0959H15.1399C12.2588 30.0959 9.92364 27.7607 9.92364 24.8804V14.8563C9.92364 11.9759 12.2588 9.64069 15.1399 9.64069H25.1633C28.0437 9.64069 30.3796 11.9759 30.3796 14.8563V24.8804Z" fill="#A370F0"/>
</svg>
