<svg width="41" height="41" viewBox="0 0 41 41" fill="none" xmlns="http://www.w3.org/2000/svg">
<path d="M30.434 15.5501C30.1212 15.5501 29.8678 15.7949 29.8678 16.0971V27.9059H23.6055L28.5031 26.3824C28.737 26.3097 28.8957 26.0993 28.8957 25.8618V13.9485C28.8957 13.6466 28.6422 13.4015 28.3294 13.4015C28.0166 13.4015 27.7632 13.6463 27.7632 13.9485V25.4634L22.9292 26.9672L26.4286 24.3679C26.568 24.2645 26.6497 24.1042 26.6497 23.9343V11.547C26.6497 11.3396 26.5284 11.1502 26.3363 11.0575C26.1442 10.9649 25.9145 10.9854 25.743 11.1101L19.9999 15.2864L14.2567 11.1101C14.0852 10.9854 13.8555 10.9652 13.6634 11.0575C13.4713 11.1502 13.35 11.3396 13.35 11.547V23.9343C13.35 24.1042 13.4317 24.2645 13.5711 24.3679L17.0706 26.9672L12.2365 25.4634V13.9485C12.2365 13.6466 11.9831 13.4015 11.6703 13.4015C11.3575 13.4015 11.1041 13.6463 11.1041 13.9485V25.8618C11.1041 26.0993 11.2627 26.3097 11.4966 26.3824L16.3942 27.9059H10.1325V16.0971C10.1325 15.7952 9.87904 15.5501 9.56623 15.5501C9.25342 15.5501 9 15.7949 9 16.0971V28.4529C9 28.7549 9.25342 29 9.56623 29H19.9982C19.9987 29 19.9993 29 19.9999 29C20.0004 29 20.001 29 20.0015 29H30.4338C30.7466 29 31 28.7552 31 28.4529V16.0971C31 15.7949 30.7466 15.5501 30.434 15.5501ZM14.4825 23.6644V12.643L19.4339 16.2437V27.3424L14.4825 23.6644ZM20.5661 16.2434L25.5175 12.6427V23.6641L20.5661 27.3419V16.2434Z" fill="#A370F0"/>
<path d="M20.1287 40.256C9.02975 40.256 0 31.2262 0 20.128C0 9.029 9.02975 0 20.1287 0C31.2277 0 40.2567 9.02974 40.2567 20.128C40.2567 31.227 31.2277 40.256 20.1287 40.256ZM20.1287 2.16602C10.2243 2.16602 2.16602 10.2236 2.16602 20.128C2.16602 30.0324 10.2243 38.09 20.1287 38.09C30.0332 38.09 38.0907 30.0324 38.0907 20.128C38.0907 10.2236 30.0332 2.16602 20.1287 2.16602Z" fill="#A370F0"/>
</svg>
