<svg width="41" height="41" viewBox="0 0 41 41" fill="none" xmlns="http://www.w3.org/2000/svg">
<path d="M20.1287 40.256C9.02975 40.256 0 31.2262 0 20.128C0 9.029 9.02975 0 20.1287 0C31.2277 0 40.2567 9.02974 40.2567 20.128C40.2567 31.227 31.2277 40.256 20.1287 40.256ZM20.1287 2.16602C10.2243 2.16602 2.16602 10.2236 2.16602 20.128C2.16602 30.0324 10.2243 38.09 20.1287 38.09C30.0332 38.09 38.0907 30.0324 38.0907 20.128C38.0907 10.2236 30.0332 2.16602 20.1287 2.16602Z" fill="#A370F0"/>
<path d="M31.5084 21.661V29.1763C31.5084 29.3617 31.3577 29.5124 31.1723 29.5124H27.2924C27.107 29.5124 26.9563 29.3617 26.9563 29.1763V22.1869C26.9563 20.3475 26.2988 19.0916 24.6506 19.0916C23.3925 19.0916 22.6457 19.9374 22.3154 20.756C22.1958 21.0485 22.1647 21.4548 22.1647 21.8656V29.1763C22.1647 29.3617 22.014 29.5124 21.8286 29.5124H17.9502C17.764 29.5124 17.6133 29.3624 17.614 29.1763C17.6229 27.3153 17.6621 18.2841 17.6222 16.161C17.6185 15.9733 17.7699 15.8204 17.9583 15.8204H21.8293C22.0148 15.8204 22.1655 15.9711 22.1655 16.1565V17.7604C22.1566 17.7759 22.1433 17.7906 22.1352 17.8054H22.1655V17.7604C22.7705 16.8295 23.8498 15.4983 26.2685 15.4983C29.2626 15.499 31.5084 17.456 31.5084 21.661ZM10.8796 29.5124H14.758C14.9434 29.5124 15.0942 29.3617 15.0942 29.1763V16.1565C15.0942 15.9711 14.9434 15.8204 14.758 15.8204H10.8796C10.6942 15.8204 10.5435 15.9711 10.5435 16.1565V29.1763C10.5435 29.3624 10.6942 29.5124 10.8796 29.5124Z" fill="#A370F0"/>
<path d="M12.6827 14.0791C14.0287 14.0791 15.1199 12.988 15.1199 11.642C15.1199 10.296 14.0287 9.20483 12.6827 9.20483C11.3368 9.20483 10.2456 10.296 10.2456 11.642C10.2456 12.988 11.3368 14.0791 12.6827 14.0791Z" fill="#A370F0"/>
</svg>
