<svg width="25" height="25" viewBox="0 0 25 25" fill="none" xmlns="http://www.w3.org/2000/svg">
<path d="M12.5005 25C5.60771 25 0 19.3923 0 12.5C0 5.60725 5.60771 0 12.5005 0C19.3932 0 25.0004 5.6077 25.0004 12.5C25.0004 19.3928 19.3932 25 12.5005 25ZM12.5005 1.34515C6.34956 1.34515 1.34515 6.3491 1.34515 12.5C1.34515 18.6509 6.34956 23.6548 12.5005 23.6548C18.6514 23.6548 23.6553 18.6509 23.6553 12.5C23.6553 6.3491 18.6514 1.34515 12.5005 1.34515Z" fill="#9F6DEB"/>
<path fill-rule="evenodd" clip-rule="evenodd" d="M7.62792 12C7.62792 8.87038 10.106 6.33333 13.1628 6.33333C16.2196 6.33333 18.6977 8.87038 18.6977 12C18.6977 15.1296 16.2196 17.6666 13.1628 17.6666C12.0739 17.6666 11.0604 17.3454 10.2052 16.7907C10.046 16.6875 9.85103 16.6599 9.6705 16.715L7.79571 17.2879L8.50159 15.5968C8.58503 15.397 8.56805 15.168 8.4561 14.9834C7.93115 14.1173 7.62792 13.0959 7.62792 12ZM13.1628 5C9.38672 5 6.3256 8.134 6.3256 12C6.3256 13.2254 6.63369 14.3788 7.17512 15.3818L6.0524 18.0713C5.95315 18.3091 5.99714 18.5842 6.16528 18.7771C6.33342 18.9701 6.59537 19.0461 6.83739 18.9721L9.76724 18.077C10.7681 18.6643 11.928 19 13.1628 19C16.9389 19 20 15.866 20 12C20 8.134 16.9389 5 13.1628 5ZM14.6556 13.4549L13.7998 14.072C13.399 13.8383 12.9559 13.512 12.5114 13.057C12.0494 12.5839 11.7068 12.0955 11.4542 11.6475L11.9981 11.1749C12.2314 10.9721 12.2953 10.6302 12.1515 10.3535L11.4586 9.02018C11.3653 8.84064 11.197 8.71453 11.0017 8.67769C10.8063 8.64085 10.6052 8.69733 10.4556 8.83105L10.2501 9.01462C9.75606 9.45608 9.46386 10.1815 9.70604 10.9161C9.9571 11.6775 10.4929 12.876 11.5906 13.9998C12.7715 15.2088 13.9711 15.685 14.6726 15.8699C15.2378 16.0188 15.7727 15.8192 16.1495 15.5048L16.5347 15.1834C16.6995 15.046 16.7883 14.8349 16.7728 14.6179C16.7573 14.4009 16.6393 14.2053 16.4567 14.0939L15.3639 13.4272C15.1431 13.2926 14.8657 13.3034 14.6556 13.4549Z" fill="#9F6DEB"/>
</svg>
